<svg xmlns="http://www.w3.org/2000/svg" xmlns:xlink="http://www.w3.org/1999/xlink" viewBox="0 0 644.87 573.86"><path d="M509.58 317.11h-.05c-6.56 16.51 9.53 43.33.19 58.77-8.88 14.68-38.17 13.54-50.85 25.68-10.08 9.64-11.89 31.19-20.86 43.33L540 556.94c4.39 4.82 12.38 2.72 13.83-3.63l14.19-61.96a8.063 8.063 0 016.81-6.2l63.02-8.32c6.46-.85 9.3-8.61 4.91-13.43L509.59 317.09zm-374.3 0h.05c6.56 16.51-9.53 43.33-.19 58.77 8.88 14.68 38.17 13.54 50.85 25.68 10.08 9.64 11.89 31.19 20.86 43.33L104.86 556.94c-4.39 4.82-12.38 2.72-13.83-3.63l-14.19-61.96a8.063 8.063 0 00-6.81-6.2l-63.02-8.32c-6.46-.85-9.3-8.61-4.91-13.43l133.17-146.31z" fill="hsl(228deg,47%,calc(33% ))"/><path d="M339.95 5.33l13.96 10.26a27.473 27.473 0 0024.89 3.94l16.45-5.44c11.4-3.77 23.93.3 30.94 10.05l10.11 14.07a27.5 27.5 0 0022.45 11.44l17.33-.09a27.48 27.48 0 0126.32 19.12l5.27 16.5c2.7 8.47 9.35 15.11 17.82 17.82l16.51 5.27a27.475 27.475 0 0119.12 26.31l-.09 17.32a27.472 27.472 0 0011.44 22.45l14.07 10.11a27.47 27.47 0 0110.05 30.93l-5.44 16.45a27.502 27.502 0 003.94 24.89l10.26 13.96c7.11 9.68 7.11 22.85 0 32.52l-10.26 13.96a27.44 27.44 0 00-3.94 24.89l5.44 16.45a27.47 27.47 0 01-10.05 30.93l-14.07 10.11A27.472 27.472 0 00561.03 422l.09 17.32A27.466 27.466 0 01542 465.63l-16.51 5.27a27.453 27.453 0 00-17.82 17.82l-5.27 16.5a27.48 27.48 0 01-26.32 19.12l-17.33-.09a27.46 27.46 0 00-22.45 11.44l-10.11 14.07a27.482 27.482 0 01-30.94 10.05l-16.45-5.44a27.5 27.5 0 00-24.89 3.94l-13.96 10.26a27.472 27.472 0 01-32.53 0l-13.96-10.26a27.473 27.473 0 00-24.89-3.94l-16.45 5.44c-11.4 3.77-23.93-.3-30.94-10.05l-10.11-14.07a27.5 27.5 0 00-22.45-11.44l-17.33.09a27.48 27.48 0 01-26.32-19.12l-5.27-16.5a27.495 27.495 0 00-17.82-17.82l-16.51-5.27a27.475 27.475 0 01-19.12-26.31l.09-17.32c.05-8.89-4.22-17.26-11.44-22.45l-14.07-10.11a27.47 27.47 0 01-10.05-30.93l5.44-16.45a27.502 27.502 0 00-3.94-24.89l-10.26-13.96c-7.11-9.68-7.11-22.85 0-32.52l10.26-13.96a27.44 27.44 0 003.94-24.89l-5.44-16.45a27.47 27.47 0 0110.05-30.93l14.07-10.11a27.472 27.472 0 0011.44-22.45l-.09-17.32a27.466 27.466 0 0119.12-26.31l16.51-5.27c8.47-2.7 15.12-9.34 17.82-17.82l5.27-16.5a27.48 27.48 0 0126.32-19.12l17.33.09a27.46 27.46 0 0022.45-11.44l10.11-14.07a27.482 27.482 0 0130.94-10.05l16.45 5.44a27.5 27.5 0 0024.89-3.94l13.96-10.26a27.472 27.472 0 0132.53 0z" fill="#ffc60d"/><circle cx="323.69" cy="286.93" r="218.5" fill="hsl(228deg,47%,calc(33% ))"/><g fill="#ffc60d"><circle cx="323.52" cy="290.1" r="146.34"/><circle cx="140.69" cy="293.43" r="10"/><circle cx="503.69" cy="293.43" r="10"/></g><g fill="hsl(228deg,47%,calc(33% ))"><path d="M322.19 185.24l6.99 14.18 15.65 2.27-11.32 11.04 2.67 15.58-13.99-7.35-14 7.35 2.67-15.58-11.32-11.04 15.65-2.27 7-14.18z"/><use xlink:href="#B"/><use xlink:href="#B" x="97"/><path d="M322.19 362.55l6.99 14.18 15.65 2.27-11.32 11.04 2.67 15.58-13.99-7.35-14 7.35 2.67-15.58L299.54 379l15.65-2.27 7-14.18z"/><use xlink:href="#B" y="166"/><use xlink:href="#B" x="97" y="166"/><path d="M242.26 334.43h-16.64v-65.16l-16.23 6.27v-13.83L240.5 249h1.76v85.43z"/><use xlink:href="#C"/><use xlink:href="#C" x="54.7"/><path d="M369.98 265.53c0-5.19 1.44-9.43 4.31-12.71s6.75-4.92 11.63-4.92 8.78 1.61 11.69 4.83 4.37 7.57 4.37 13.04v4.28c0 5.27-1.45 9.51-4.34 12.71s-6.76 4.8-11.6 4.8-8.68-1.6-11.63-4.8-4.42-7.56-4.42-13.07v-4.16zm10.78 4.51c0 2.34.5 4.21 1.49 5.6s2.26 2.08 3.78 2.08 2.8-.72 3.72-2.17 1.38-3.34 1.38-5.68v-4.34c0-2.27-.47-4.13-1.41-5.6s-2.21-2.2-3.81-2.2-2.81.73-3.75 2.2-1.41 3.39-1.41 5.77v4.34zm8.26 58.01l-7.85-4.45 34.98-66.68 7.91 4.45-35.04 66.68zm14.59-14.53c0-5.27 1.46-9.52 4.39-12.74s6.8-4.83 11.6-4.83 8.73 1.59 11.66 4.78 4.39 7.55 4.39 13.1v4.28c0 5.24-1.43 9.46-4.28 12.69-2.85 3.22-6.74 4.83-11.66 4.83s-8.89-1.62-11.78-4.86-4.34-7.54-4.34-12.89v-4.34zm10.84 4.57c0 2.19.52 4.02 1.55 5.51s2.28 2.23 3.72 2.23c3.24 0 4.94-2.32 5.1-6.97v-5.33c0-2.3-.48-4.17-1.44-5.6s-2.22-2.14-3.78-2.14c-3.44 0-5.16 2.99-5.16 8.96v3.34z"/></g><path d="M130.29 228.81l31.72 3.25-26.09-18.32 3.94-10.54 39.96 14.93-3.02 8.1-10.81-4.04-16.38-6.97 24.49 18.25-2.05 5.49-30.46-2.28 16.93 5.48 10.81 4.04-3.01 8.07-39.96-14.93 3.94-10.54zm64.88-60.95c4.44 3.61 7.03 7.46 7.78 11.56.75 4.09-.39 8.01-3.43 11.73-3.02 3.71-6.61 5.64-10.77 5.78s-8.44-1.55-12.84-5.08l-5.66-4.6c-4.54-3.7-7.24-7.64-8.08-11.82s.26-8.14 3.31-11.89c2.99-3.68 6.61-5.56 10.84-5.64s8.63 1.71 13.18 5.36l5.66 4.6zm-11 2.19c-2.98-2.43-5.55-3.81-7.69-4.14-2.15-.33-3.94.39-5.4 2.18-1.44 1.77-1.81 3.65-1.1 5.64s2.49 4.16 5.33 6.52l5.89 4.79c2.89 2.35 5.38 3.66 7.45 3.91s3.84-.52 5.31-2.33c1.42-1.74 1.8-3.58 1.15-5.52s-2.38-4.06-5.18-6.37l-5.75-4.68zm62.99-19.85l-7.18 4.76-25.96-16.36 15.46 23.32-7.18 4.76-23.56-35.56 7.18-4.76 26 16.37-15.47-23.35 7.16-4.74 23.56 35.56zm32.99-32.06l-12.79 4.05 3.41 10.78 15.14-4.79 2.16 6.82-23.35 7.39-12.86-40.67 23.3-7.37 2.17 6.84-15.08 4.77 3.04 9.61 12.79-4.05 2.09 6.62zm36.95-10l5.72-19.38 9.37-.34L321.76 116l.56 15.46-8.72.32-.56-15.46-12.44-26.75 9.37-.34 7.14 18.91zm59.03 31.56l17.11-39.07 12.08 5.29c4.08 1.79 6.78 4.05 8.11 6.8s1.22 5.87-.32 9.38c-.87 1.99-2.06 3.5-3.56 4.55s-3.16 1.57-4.97 1.57c1.53 1.27 2.45 2.87 2.73 4.79.29 1.93-.06 4-1.03 6.22-1.66 3.79-3.96 6.2-6.89 7.22s-6.37.66-10.32-1.07l-12.94-5.66zm15.33-13.53l-4.57 10.44 5.05 2.21c1.41.62 2.68.65 3.79.09 1.12-.55 2.03-1.64 2.73-3.25 1.54-3.51 1.05-5.86-1.45-7.06l-5.55-2.43zm2.51-5.74l4.11 1.8c3.1 1.36 5.34.43 6.75-2.77.78-1.77.97-3.2.59-4.28s-1.37-1.98-2.98-2.68l-4.19-1.83-4.28 9.77zm44.13 46.45l-8.96-7.59-7.39 5.19-6.95-5.89 37.74-23.93 6.01 5.09-17.33 41.22-7.02-5.95 3.9-8.14zm-2.89-11.86l6.08 5.15 6.79-14.18-12.87 9.03zm43.9 55.03c-4.2 2.46-8.04 3.31-11.5 2.55-3.47-.76-6.45-3.07-8.94-6.92-2.62-4.05-3.29-8.02-2.02-11.9s4.38-7.42 9.32-10.61l6.03-3.9c4.92-3.18 9.44-4.52 13.54-4.01 4.11.51 7.44 2.75 10.01 6.72 2.52 3.9 3.35 7.57 2.47 11.01-.87 3.44-3.26 6.61-7.17 9.53l-4.69-7.26c2.48-1.7 3.98-3.21 4.47-4.55.5-1.33.13-2.95-1.1-4.85-1.25-1.94-2.81-2.87-4.69-2.8-1.87.07-4.38 1.08-7.51 3.04l-6.77 4.37c-3.56 2.3-5.75 4.28-6.56 5.93-.82 1.65-.6 3.45.65 5.38 1.23 1.9 2.54 2.92 3.93 3.04s3.34-.55 5.83-2.02l4.67 7.23zm14.37 30.52l-5.07-2.03-11.67 3.5-2.48-8.25 40.86-12.26 2.47 8.25-17.82 5.35 5.19 1.29 15.69 3.58 3.03 10.1-21.47-6.31-19.33 18.77-2.94-9.79 13.53-12.2zM142.96 377.35c-2.24-.76-4.24-2.03-5.99-3.81s-3.19-3.93-4.32-6.47c-1.93-4.34-2.08-8.3-.47-11.9 1.62-3.6 4.98-6.57 10.08-8.92l6.79-3.02c5.2-2.31 9.71-2.96 13.53-1.93 3.82 1.02 6.69 3.71 8.63 8.07 1.82 4.09 2.18 7.63 1.09 10.61-1.1 2.98-3.73 5.6-7.9 7.84l-3.3-7.41c2.31-1.28 3.72-2.5 4.24-3.69.52-1.18.4-2.62-.35-4.31-.91-2.06-2.33-3.21-4.25-3.48-1.92-.26-4.53.32-7.82 1.74l-6.84 3.04c-3.44 1.53-5.71 3.16-6.82 4.88s-1.14 3.76-.09 6.11c.67 1.5 1.51 2.59 2.53 3.25l.77.47 6.92-3.08-2.37-5.34 5.75-2.56 5.77 12.98-15.57 6.93zm62.8 23.68l-21.63 18.69c-3.27 2.78-6.53 4.03-9.77 3.76s-6.29-2.05-9.13-5.34c-2.89-3.35-4.23-6.66-4.01-9.93s1.98-6.34 5.29-9.2l21.48-18.56 5.49 6.35-21.5 18.58c-1.77 1.53-2.79 2.91-3.06 4.14-.26 1.23.25 2.59 1.55 4.1 1.3 1.5 2.56 2.21 3.8 2.12 1.23-.09 2.71-.87 4.44-2.34l21.61-18.67 5.45 6.31zm15.33 52.42l-9.6-6.09-6.39 5.95-7.45-4.72 33-27.97 6.44 4.08-11.13 41.83-7.52-4.77 2.66-8.32zm-4.35-10.99l6.52 4.13 4.62-14.5-11.14 10.37zm54.63 25.18l-3.99-1.1-4 14.55-8.04-2.21 10.95-39.82 12.83 3.53c4.03 1.11 6.85 3.01 8.48 5.7 1.62 2.69 1.91 5.96.85 9.81-1.45 5.29-4.39 8.46-8.82 9.52l2.49 18.21-.1.38-8.64-2.38-1.99-16.2zm-2.15-7.8l4.57 1.26c1.6.44 2.95.24 4.05-.61s1.89-2.16 2.38-3.95c1.1-3.99.09-6.42-3.03-7.27l-4.7-1.29-3.26 11.87zm64.44 21.27l-11.37.27-2.01 8.5-8.82.21 11.93-41.58 7.63-.18 13.96 40.97-8.9.21-2.41-8.4zm-9.72-6.72l7.71-.18-4.2-14.62-3.51 14.81zm79.9-.42l-7.89 2.7-20.3-21.68 8.76 25.63-7.89 2.7-13.36-39.07 7.89-2.7 20.34 21.7-8.77-25.65 7.86-2.69 13.36 39.07zm32.23-59.65l-8.28 5.97 20.08 27.87-6.79 4.89L421 425.18l-8.15 5.87-4.06-5.64 23.22-16.73 4.06 5.64zm42.35-22.47l-8.09 10.16 8.57 6.82 9.57-12.03 5.41 4.31-14.76 18.55-32.31-25.71 14.73-18.51 5.44 4.33-9.54 11.98 7.63 6.08 8.09-10.16 5.26 4.18zm23.61-45.02l-5.09 11.95 10.07 4.29 6.03-14.14 6.37 2.71-9.3 21.81-37.98-16.2 9.28-21.76 6.39 2.73-6.01 14.09 8.97 3.83 5.1-11.95 6.18 2.64z" fill="#fff"/><defs><path id="B" d="M273.69 196.55l5.16 10.46 11.53 1.67-8.34 8.14 1.97 11.49-10.32-5.42-10.32 5.42 1.97-11.49-8.35-8.14 11.54-1.67 5.16-10.46z"/><path id="C" d="M310.03 299.16c0 11.8-2.14 20.82-6.42 27.07s-10.38 9.38-18.31 9.38-13.92-3.04-18.19-9.11c-4.28-6.07-6.5-14.77-6.65-26.1v-16.11c0-11.76 2.13-20.75 6.39-26.98s10.37-9.35 18.34-9.35 14.08 3.09 18.34 9.26 6.42 14.98 6.5 26.43v15.53zm-16.64-17.29c0-6.72-.67-11.76-1.99-15.12-1.33-3.36-3.4-5.04-6.21-5.04-5.27 0-8.01 6.15-8.2 18.46v21.27c0 6.88.67 11.99 2.02 15.35s3.45 5.04 6.3 5.04c2.7 0 4.7-1.57 6.01-4.72 1.31-3.14 2-7.96 2.08-14.44v-20.8z"/></defs></svg>