<svg xmlns="http://www.w3.org/2000/svg" viewBox="0 0 512 512"><path d="M256 0C114.6 0 0 114.6 0 256s114.6 256 256 256 256-114.6 256-256S397.4 0 256 0zm131.3 170.4l-159 204c-1.3 1.3-3.3 4-5.8 4-2.6 0-4.3-1.8-5.8-3.3s-90.2-86.7-90.2-86.7l-1.7-1.7c-.7-1-1.3-2.3-1.3-3.7s.6-2.6 1.3-3.7c.5-.5.8-.8 1.3-1.4 8.8-9.3 26.6-28 27.8-29.1 1.5-1.5 2.7-3.4 5.5-3.4 2.9 0 4.7 2.4 6.1 3.8 1.4 1.4 51.4 49.5 51.4 49.5L344 135.2c1.1-.9 2.5-1.6 4-1.6s2.9.6 4 1.5l35 27.5c.9 1.1 1.5 2.5 1.5 4 .1 1.5-.5 2.8-1.2 3.8z" fill="#FFFFFF"/></svg>